<svg xmlns="http://www.w3.org/2000/svg" viewBox="0 0 32 32"><title>88-Option Add</title><g id="_88-Option_Add" data-name="88-Option Add"><path d="M29,4H26V3a3,3,0,0,0-3-3H3A3,3,0,0,0,0,3V23a3,3,0,0,0,3,3H4v3a3,3,0,0,0,3,3H29a3,3,0,0,0,3-3V7A3,3,0,0,0,29,4ZM4,7V24H3a1,1,0,0,1-1-1V3A1,1,0,0,1,3,2H23a1,1,0,0,1,1,1V4H7A3,3,0,0,0,4,7ZM30,29a1,1,0,0,1-1,1H7a1,1,0,0,1-1-1V7A1,1,0,0,1,7,6H29a1,1,0,0,1,1,1Z"/><polygon points="19 11 17 11 17 17 11 17 11 19 17 19 17 25 19 25 19 19 25 19 25 17 19 17 19 11"/></g></svg>