<?xml version="1.0" encoding="iso-8859-1"?>
<!-- Generator: Adobe Illustrator 19.0.0, SVG Export Plug-In . SVG Version: 6.00 Build 0)  -->
<svg version="1.1" id="Layer_1" xmlns="http://www.w3.org/2000/svg" xmlns:xlink="http://www.w3.org/1999/xlink" x="0px" y="0px"
	 viewBox="0 0 512 512" style="enable-background:new 0 0 512 512;" xml:space="preserve">
<rect x="116.561" y="53.812" style="fill:#E0E0D3;" width="278.881" height="298.531"/>
<rect x="116.561" y="192.987" style="opacity:0.2;enable-background:new    ;" width="278.881" height="159.351"/>
<g>
	<path style="fill:#5C6670;" d="M353.691,126.674h-195.38c-4.488,0-8.125-3.637-8.125-8.125c0-4.488,3.637-8.125,8.125-8.125h195.38
		c4.487,0,8.125,3.637,8.125,8.125C361.816,123.037,358.179,126.674,353.691,126.674z"/>
	<path style="fill:#5C6670;" d="M353.691,172.582h-60.08c-4.488,0-8.125-3.637-8.125-8.125c0-4.488,3.637-8.125,8.125-8.125h60.08
		c4.487,0,8.125,3.637,8.125,8.125C361.816,168.945,358.179,172.582,353.691,172.582z"/>
	<path style="fill:#5C6670;" d="M264.362,172.582H158.311c-4.488,0-8.125-3.637-8.125-8.125c0-4.488,3.637-8.125,8.125-8.125
		h106.051c4.488,0,8.125,3.637,8.125,8.125C272.487,168.945,268.85,172.582,264.362,172.582z"/>
	<path style="fill:#5C6670;" d="M503.875,236.447c0-11.916-9.75-21.666-21.666-21.666H29.79c-11.916,0-21.666,9.75-21.666,21.666
		v200.075c0,11.916,9.75,21.666,21.666,21.666H482.21c11.916,0,21.666-9.75,21.666-21.666V236.447z"/>
</g>
<path style="fill:#1E252B;" d="M417.957,429.651v-76.316c0-11.916-9.75-21.666-21.666-21.666H115.702
	c-11.916,0-21.666,9.75-21.666,21.666v76.316L417.957,429.651L417.957,429.651z"/>
<path style="opacity:0.1;enable-background:new    ;" d="M396.291,331.669H115.702c-11.916,0-21.666,9.75-21.666,21.666v28.255
	c0-11.916,9.75-21.666,21.666-21.666h280.59c11.916,0,21.666,9.75,21.666,21.666v-28.255
	C417.957,341.419,408.207,331.669,396.291,331.669z"/>
<rect x="82.362" y="415.678" style="fill:#333E48;" width="347.268" height="42.508"/>
<rect x="82.362" y="436.932" style="opacity:0.1;enable-background:new    ;" width="347.268" height="21.253"/>
<path style="fill:#FFFFFF;" d="M152.337,284.491c0,5.958-4.875,10.833-10.833,10.833H64.258c-5.958,0-10.833-4.875-10.833-10.833
	v-25.784c0-5.958,4.875-10.833,10.833-10.833h77.246c5.958,0,10.833,4.875,10.833,10.833V284.491z"/>
<circle style="fill:#FFC843;" cx="380.471" cy="271.601" r="18.524"/>
<circle style="fill:#0055B8;" cx="440.052" cy="271.601" r="18.524"/>
<path style="fill:#1E252B;" d="M141.504,239.749H64.258c-10.453,0-18.957,8.505-18.957,18.957v25.784
	c0,10.453,8.505,18.957,18.957,18.957h77.246c10.454,0,18.957-8.505,18.957-18.957v-25.784
	C160.461,248.254,151.958,239.749,141.504,239.749z M144.212,284.491c0,1.468-1.24,2.708-2.708,2.708H64.258
	c-1.469,0-2.708-1.24-2.708-2.708v-25.784c0-1.468,1.239-2.708,2.708-2.708h77.246c1.468,0,2.708,1.24,2.708,2.708V284.491z
	 M482.21,206.657h-78.645V53.812c0-4.488-3.637-8.125-8.125-8.125H116.56c-4.488,0-8.125,3.637-8.125,8.125v152.845H29.79
	c-16.426,0-29.79,13.364-29.79,29.79v200.075c0,16.426,13.364,29.79,29.79,29.79H482.21c16.426,0,29.79-13.365,29.79-29.79V236.447
	C512,220.02,498.635,206.657,482.21,206.657z M124.685,61.937h262.63v144.72h-262.63V61.937z M421.506,450.063H90.488v-26.257
	h331.018V450.063z M495.751,436.522c0,7.466-6.075,13.541-13.541,13.541h-44.455v-34.381c0-4.488-3.638-8.125-8.125-8.125H82.363
	c-4.488,0-8.125,3.637-8.125,8.125v34.381H29.79c-7.466,0-13.541-6.075-13.541-13.541V236.447c0-7.467,6.075-13.541,13.541-13.541
	H482.21c7.466,0,13.541,6.074,13.541,13.541V436.522z"/>
<g>
</g>
<g>
</g>
<g>
</g>
<g>
</g>
<g>
</g>
<g>
</g>
<g>
</g>
<g>
</g>
<g>
</g>
<g>
</g>
<g>
</g>
<g>
</g>
<g>
</g>
<g>
</g>
<g>
</g>
</svg>
