<?xml version="1.0" encoding="UTF-8"?>
<!DOCTYPE svg PUBLIC "-//W3C//DTD SVG 1.1//EN" "http://www.w3.org/Graphics/SVG/1.1/DTD/svg11.dtd">
<!-- Creator: CorelDRAW -->
<svg xmlns="http://www.w3.org/2000/svg" xml:space="preserve" width="2048px" height="2048px" style="shape-rendering:geometricPrecision; text-rendering:geometricPrecision; image-rendering:optimizeQuality; fill-rule:evenodd; clip-rule:evenodd"
viewBox="0 0 2048 2048"
 xmlns:xlink="http://www.w3.org/1999/xlink">
 <defs>
  <style type="text/css">
   <![CDATA[
    .fil0 {fill:none}
    .fil6 {fill:#0288D1}
    .fil5 {fill:#333333}
    .fil1 {fill:#471E00}
    .fil4 {fill:#E6B683}
    .fil2 {fill:#FAD3A8}
    .fil3 {fill:#C99154;fill-rule:nonzero}
   ]]>
  </style>
 </defs>
 <g id="Layer_x0020_1">
  <metadata id="CorelCorpID_0Corel-Layer"/>
  <rect class="fil0" x="256" y="255.999" width="1536" height="1536"/>
  <rect class="fil0" width="2048" height="2048"/>
  <path class="fil1" d="M1011.14 256.001c230.326,0 417.024,196.533 417.024,438.966 0,242.45 -186.698,438.984 -417.024,438.984 -230.309,0 -417.017,-196.534 -417.017,-438.984 0,-242.433 186.708,-438.966 417.017,-438.966z"/>
  <path class="fil2" d="M1025.12 439.576c183.96,0 328.465,110.068 305.416,373.866 -6.55867,75.0945 59.6292,35.4307 59.6292,62.563 0,224.02 -169.683,405.622 -379.023,405.622 -209.312,0 -379.015,-181.602 -379.015,-405.622 44.6776,71.7178 51.515,-19.252 49.5036,-61.2024 -16.5189,-343.422 150.643,-375.227 343.49,-375.227z"/>
  <g>
   <path class="fil3" d="M1083.14 935.237l-19.6914 -22.037 0.526772 -0.544489 0.544489 -0.509056 0.563386 -0.473622 0.577559 -0.438189 0.592914 -0.402756 0.607087 -0.366142 0.618898 -0.33189 0.629528 -0.296457 0.640158 -0.259843 0.647245 -0.225591 0.655512 -0.188977 0.661418 -0.154725 0.666142 -0.11811 0.669686 -0.0838583 0.672048 -0.0472441 0.672048 -0.0129921 0.673229 0.0236221 0.670867 0.0578741 0.668504 0.0944883 0.664961 0.12874 0.659056 0.164173 0.651969 0.199606 0.646063 0.236221 0.635434 0.270473 0.625985 0.305906 0.614174 0.340158 0.602363 0.376772 0.587008 0.412205 0.572835 0.446457 0.5563 0.483071 0.538583 0.517323 0.519685 0.552756 0.493701 0.581103 0.461811 0.601182 0.42874 0.62126 0.396851 0.637796 0.364961 0.654331 0.33189 0.669686 0.301181 0.682678 0.26811 0.694489 0.236221 0.705119 0.20315 0.715749 0.172441 0.722835 0.13937 0.729922 0.10748 0.734646 0.0755906 0.73819 0.0437008 0.741733 0.011811 0.741733 -0.0212599 0.742914 -0.0531496 0.740552 -0.0850394 0.737008 -0.116929 0.733465 -0.148819 0.72756 -0.180709 0.719292 -0.21378 0.712205 -0.244488 0.701575 -0.277559 0.690945 -0.309449 0.677953 -0.341339 0.66378 -0.373229 0.648426 -0.405118 0.63189 -0.437008 0.614174 -0.468898 0.594095 -0.500788 0.572835zm-143.986 -0.0011811l19.6914 -22.0347 2.75197 2.8441 2.84646 2.6563 2.9374 2.47205 3.02362 2.2878 3.10276 2.10473 3.17835 1.92284 3.24685 1.74095 3.30709 1.55906 3.36378 1.3748 3.41221 1.19291 3.45591 1.01102 3.49252 0.827953 3.51969 0.644882 3.54095 0.459449 3.55866 0.276378 3.56339 0.0921261 3.56221 -0.0921261 3.55866 -0.276378 3.54095 -0.459449 3.52087 -0.644882 3.49134 -0.827953 3.45591 -1.01102 3.41457 -1.19291 3.3626 -1.3748 3.30709 -1.55906 3.24685 -1.74095 3.17835 -1.92284 3.10276 -2.10473 3.02362 -2.2878 2.9374 -2.47205 2.84646 -2.6563 2.75197 -2.84528 19.6914 22.037 -3.78898 3.91772 -3.93307 3.66969 -4.06181 3.41693 -4.18347 3.16654 -4.29331 2.9126 -4.39252 2.65748 -4.48229 2.40473 -4.56378 2.14961 -4.63583 1.89685 -4.69489 1.64173 -4.74804 1.38898 -4.79055 1.13504 -4.82717 0.883465 -4.85197 0.629528 -4.86733 0.377953 -4.87796 0.127559 -4.87914 -0.127559 -4.86733 -0.377953 -4.85197 -0.629528 -4.82599 -0.883465 -4.79174 -1.13504 -4.74804 -1.38898 -4.69489 -1.64173 -4.63465 -1.89685 -4.56378 -2.14961 -4.48229 -2.40473 -4.39252 -2.65748 -4.29331 -2.9126 -4.18347 -3.16654 -4.06181 -3.41693 -3.93307 -3.66969 -3.78898 -3.9189zm19.6914 -22.0347l-19.6914 22.0347 -0.500788 -0.572835 -0.468898 -0.594095 -0.437008 -0.614174 -0.405118 -0.63189 -0.373229 -0.648426 -0.341339 -0.66378 -0.309449 -0.677953 -0.277559 -0.690945 -0.244488 -0.701575 -0.21378 -0.712205 -0.180709 -0.719292 -0.148819 -0.72756 -0.116929 -0.733465 -0.0850394 -0.737008 -0.0531496 -0.740552 -0.0212599 -0.742914 0.011811 -0.741733 0.0437008 -0.741733 0.0755906 -0.73819 0.10748 -0.734646 0.13937 -0.729922 0.172441 -0.722835 0.20315 -0.714567 0.236221 -0.7063 0.26811 -0.694489 0.301181 -0.682678 0.33189 -0.668504 0.364961 -0.654331 0.396851 -0.638977 0.42874 -0.620079 0.461811 -0.601182 0.493701 -0.581103 0.519685 -0.552756 0.538583 -0.517323 0.5563 -0.48189 0.572835 -0.447638 0.587008 -0.411024 0.602363 -0.376772 0.614174 -0.341339 0.625985 -0.305906 0.635434 -0.270473 0.646063 -0.23504 0.651969 -0.199606 0.659056 -0.164173 0.664961 -0.129921 0.668504 -0.0933072 0.670867 -0.0578741 0.673229 -0.0236221 0.672048 0.0129921 0.672048 0.0472441 0.669686 0.0838583 0.666142 0.11811 0.661418 0.154725 0.655512 0.188977 0.647245 0.225591 0.640158 0.259843 0.629528 0.296457 0.618898 0.33189 0.607087 0.366142 0.592914 0.402756 0.577559 0.438189 0.563386 0.473622 0.544489 0.509056 0.526772 0.544489z"/>
  </g>
  <path class="fil1" d="M1138.77 379.082c146.689,64.9111 265.61,160.867 265.61,214.328 0,53.4579 -118.921,44.1756 -265.61,-20.7343 -146.687,-64.9111 -265.601,-160.867 -265.601,-214.328 0,-53.4579 118.913,-44.1815 265.601,20.7343z"/>
  <path class="fil2" d="M582.756 737.966c20.9469,-9.91182 54.0851,29.2358 73.9938,87.4335 19.9193,58.2048 19.0784,113.42 -1.88386,123.324 -20.954,9.91182 -54.078,-29.2358 -73.9867,-87.4312 -19.9335,-58.2142 -19.0784,-113.421 1.87677,-123.326z"/>
  <path class="fil2" d="M1434.49 737.966c-27.1914,-9.91182 -63.3674,29.2358 -80.7875,87.4335 -17.4201,58.2048 -9.47363,113.42 17.7331,123.324 27.2008,9.91182 63.3674,-29.2358 80.7816,-87.4312 17.4177,-58.2142 9.47127,-113.421 -17.7272,-123.326z"/>
  <path class="fil1" d="M750.107 414.677c-81.626,56.9941 -85.7375,155.105 -85.7375,183.445 0,28.35 66.1796,5.13544 147.806,-51.8611 81.6343,-56.9965 147.815,-126.177 147.815,-154.527 0,-28.35 -128.249,-34.0536 -209.883,22.9429z"/>
  <polygon class="fil4" points="838.231,1545.47 1184.06,1545.47 1184.06,1003.92 838.231,1003.92 "/>
  <path class="fil5" d="M1011.14 256.001c230.326,0 417.024,196.533 417.024,438.966 0,242.45 -186.698,438.984 -417.024,438.984 -230.309,0 -417.017,-196.534 -417.017,-438.984 0,-242.433 186.708,-438.966 417.017,-438.966z"/>
  <path class="fil2" d="M1330.54 813.442c-6.55867,75.0945 59.6292,35.4307 59.6292,62.5713 0,224.012 -169.697,405.613 -379.023,405.613 -209.326,0 -379.015,-181.602 -379.015,-405.613 44.6776,71.7024 51.515,-19.2603 49.5036,-61.2107 -9.61772,-199.957 110.055,-328.458 113.831,-375.694 -10.2213,41.3469 197.111,163.12 405.147,164.959 41.2855,0.366142 53.4319,-15.2315 76.0465,15.574 27.6768,37.6973 55.1209,148.086 53.8808,193.8z"/>
  <path class="fil6" d="M1702.28 1633.99c-79.9205,-63.3792 -439.947,-255.111 -518.217,-283.774 -14.4945,53.3788 -97.8426,95.3375 -174.634,95.3375 -76.7835,0 -156.709,-33.802 -171.196,-87.1808 -78.28,28.663 -412.601,212.238 -492.512,275.618 151.862,210.541 1171.86,210.826 1356.56,0z"/>
  <path class="fil2" d="M1430.43 737.966c-27.2067,-9.91182 -63.3674,29.2358 -80.7875,87.4335 -17.4118,58.2048 -9.48072,113.42 17.7177,123.324 27.2067,9.91182 63.3827,-29.2358 80.7875,-87.4312 17.4201,-58.2142 9.48898,-113.421 -17.7177,-123.326z"/>
  <path class="fil2" d="M591.872 737.966c27.2055,-9.91182 63.3674,29.2358 80.7875,87.4335 17.4201,58.2048 9.48544,113.42 -17.7201,123.331 -27.1984,9.90473 -63.3745,-29.2429 -80.7804,-87.4383 -17.4189,-58.2071 -9.48544,-113.421 17.713,-123.326z"/>
 </g>
</svg>
